<?xml version="1.0" standalone="no"?>
<!DOCTYPE svg PUBLIC "-//W3C//DTD SVG 20010904//EN"
 "http://www.w3.org/TR/2001/REC-SVG-20010904/DTD/svg10.dtd">
<svg version="1.0" xmlns="http://www.w3.org/2000/svg"
 width="555.000000pt" height="555.000000pt" viewBox="0 0 555.000000 555.000000"
 preserveAspectRatio="xMidYMid meet">
<metadata>
Created by potrace 1.11, written by Peter Selinger 2001-2013
</metadata>
<g transform="translate(0.000000,555.000000) scale(0.100000,-0.100000)"
fill="#000000" stroke="none">
<path d="M4682 5213 c-6 -2 -10 -9 -6 -14 4 -8 -139 -15 -203 -9 -13 1 -23 -4
-23 -10 0 -6 5 -8 12 -4 6 4 9 3 5 -2 -3 -5 -72 -11 -153 -12 -101 -2 -151 -7
-156 -15 -6 -9 -8 -9 -8 1 0 6 -5 12 -11 12 -6 0 -9 -6 -6 -13 5 -13 -59 -17
-289 -21 -50 0 -70 -4 -67 -12 3 -9 -28 -13 -114 -14 -162 -4 -163 -4 -153
-15 5 -7 -37 -11 -123 -13 -108 -3 -133 -6 -145 -20 -12 -15 -13 -15 -9 -1 4
13 -1 16 -24 14 -17 -1 -33 -6 -37 -9 -3 -4 6 -5 21 -2 16 3 25 1 22 -5 -4 -5
-60 -9 -126 -9 -88 0 -118 -3 -113 -12 5 -7 3 -8 -7 -2 -21 13 -59 12 -59 -1
0 -9 -30 -13 -102 -15 -57 -1 -126 -3 -155 -3 -28 -1 -49 -5 -46 -9 2 -5 8 -6
12 -4 4 3 13 1 19 -3 7 -4 -47 -9 -120 -11 -73 -1 -146 -3 -161 -3 -16 0 -26
-5 -23 -12 2 -7 -35 -12 -122 -14 -84 -1 -129 -6 -134 -14 -6 -9 -8 -9 -8 0 0
6 -13 11 -30 11 -18 -1 -30 -6 -30 -15 0 -7 -4 -13 -10 -13 -5 0 -10 5 -10 10
0 6 -5 10 -11 10 -5 0 -7 -4 -4 -10 5 -8 -178 -17 -217 -11 -5 0 -8 -6 -8 -14
0 -19 -48 -13 -63 7 -6 9 -7 8 -3 -4 5 -16 -4 -18 -92 -20 -53 0 -113 -1 -132
0 -19 0 -29 -2 -22 -5 6 -2 12 -9 12 -14 0 -13 -23 -7 -37 11 -11 13 -12 13
-7 -3 4 -10 3 -17 -2 -16 -5 1 -60 1 -122 0 -88 -1 -111 -4 -106 -13 6 -10 5
-10 -7 -1 -15 12 -43 12 -55 1 -3 -4 6 -5 20 -4 15 2 24 1 20 -3 -3 -3 -29 -7
-57 -7 -247 -6 -278 -9 -262 -20 13 -10 11 -11 -12 -10 -15 1 -34 5 -42 10
-10 6 -12 5 -7 -2 5 -9 -18 -12 -86 -12 l-93 0 1 -62 c1 -35 3 -100 4 -144 2
-45 0 -86 -4 -92 -3 -6 -17 -9 -31 -6 -13 2 -27 -1 -31 -7 -5 -8 1 -10 19 -7
15 3 25 2 22 -1 -2 -4 -61 -8 -131 -9 -70 -1 -130 -4 -133 -7 -9 -10 -8 -55 1
-49 4 3 6 10 3 15 -4 5 -2 9 3 9 6 0 10 -47 11 -106 1 -59 2 -109 3 -113 3
-29 -4 -51 -18 -51 -8 0 -13 -4 -9 -9 3 -5 1 -12 -4 -15 -5 -4 -13 -1 -17 5
-5 8 -3 9 6 4 9 -5 11 -4 6 3 -9 15 -36 15 -56 1 -12 -8 -10 -9 8 -4 12 3 22
2 22 -3 0 -5 -46 -10 -102 -11 -56 -1 -107 -6 -114 -11 -6 -6 -14 -7 -18 -3
-4 4 -4 -1 0 -11 4 -12 9 -14 14 -6 4 6 8 -42 9 -106 2 -120 5 -139 22 -129 5
4 9 1 9 -5 0 -7 -6 -10 -14 -7 -11 4 -14 -2 -12 -26 1 -17 8 -33 14 -35 16 -5
15 -34 0 -51 -10 -11 -10 -13 0 -7 9 6 12 -16 13 -91 1 -54 1 -102 0 -107 -1
-5 4 -6 11 -4 10 4 14 -24 16 -130 2 -93 7 -139 15 -144 7 -4 7 -8 1 -8 -5 0
-10 -11 -10 -24 0 -14 4 -22 8 -20 5 3 6 9 3 14 -3 5 -1 11 4 14 4 3 8 -2 8
-12 0 -172 5 -272 13 -267 5 3 10 2 10 -4 0 -5 -6 -12 -12 -15 -7 -3 31 -4 84
-3 54 2 101 7 105 12 5 4 2 5 -5 1 -6 -4 -12 -3 -12 3 0 5 33 9 72 10 40 0 68
-3 62 -7 -7 -4 -12 -20 -12 -36 0 -17 3 -23 8 -15 5 6 6 18 3 26 -3 7 -1 13 5
13 11 0 9 -40 -3 -60 -5 -9 -4 -11 3 -6 9 5 12 -16 13 -76 1 -86 -1 -131 -6
-136 -2 -2 -28 -3 -59 -3 -41 0 -59 -5 -67 -17 -10 -16 -10 -16 -5 1 3 9 1 17
-4 17 -6 0 -10 -7 -10 -15 0 -8 -5 -15 -11 -15 -5 0 -8 4 -4 9 3 5 1 13 -5 16
-6 4 -9 1 -8 -7 2 -9 -13 -14 -52 -16 -57 -3 -81 -14 -59 -27 8 -6 10 -4 4 5
-5 8 -4 11 2 7 5 -3 11 -64 13 -134 4 -182 4 -181 15 -176 6 2 11 -12 11 -34
2 -138 10 -271 16 -267 4 3 5 18 3 34 -2 17 0 28 4 26 9 -6 8 -83 -2 -92 -4
-4 -7 -12 -7 -18 0 -6 5 -4 10 4 7 10 10 -16 10 -83 0 -76 3 -97 13 -91 6 4 9
4 5 -1 -4 -4 -2 -15 5 -24 10 -14 10 -14 -4 -3 -15 11 -16 8 -14 -33 1 -25 5
-48 10 -52 4 -5 5 -2 1 5 -4 6 -3 12 2 12 6 0 11 -43 12 -97 2 -130 4 -151 14
-160 5 -4 6 -2 2 4 -4 7 -2 13 3 13 6 0 11 -4 11 -10 0 -5 9 -10 21 -10 13 0
19 5 16 13 -5 15 50 17 72 3 10 -6 12 -6 7 2 -5 9 17 12 79 12 73 0 86 -2 81
-15 -3 -8 -1 -15 3 -15 5 0 12 6 14 13 3 6 5 1 5 -13 -3 -144 3 -250 15 -244
9 6 9 5 0 -7 -12 -15 -12 -43 0 -55 3 -4 5 3 2 14 -2 12 -1 24 3 26 4 3 8 -11
8 -30 0 -21 -5 -33 -11 -30 -7 2 -12 -2 -12 -9 0 -7 6 -11 14 -8 10 4 13 -15
14 -88 1 -52 2 -117 3 -145 0 -38 4 -50 13 -47 17 7 17 -19 1 -36 -10 -11 -10
-13 0 -7 9 6 12 -14 13 -83 2 -108 2 -107 13 -118 5 -4 6 -3 2 4 -3 6 -2 14 4
18 5 3 10 0 10 -9 0 -15 24 -16 37 -1 4 4 3 5 -4 1 -6 -3 -14 -2 -17 2 -7 11
34 9 53 -2 10 -6 12 -5 7 3 -6 9 20 11 106 9 l113 -3 3 -130 c2 -72 5 -131 6
-132 2 -2 16 -4 32 -5 16 -1 38 -9 49 -17 18 -15 19 -15 7 0 -12 16 -4 17 220
22 25 1 44 5 41 9 -2 5 -9 6 -14 3 -5 -4 -9 -2 -9 4 0 5 9 9 20 8 11 -1 20 -5
20 -9 0 -4 5 -8 11 -8 5 0 7 4 4 10 -4 6 29 10 92 11 172 2 182 3 177 11 -3 5
-10 6 -15 3 -5 -4 -9 -2 -9 3 0 8 111 14 263 14 25 0 37 5 37 14 0 8 5 14 11
14 5 0 8 -4 4 -9 -3 -5 -1 -13 5 -16 6 -4 9 -1 8 6 -4 18 33 24 43 7 6 -10 9
-10 9 0 0 9 25 12 91 12 76 0 94 3 105 18 13 16 14 16 8 -3 -6 -20 -5 -20 10
-1 14 18 21 15 17 -7 -1 -5 3 -6 9 -2 6 3 8 10 5 15 -3 5 37 9 87 10 167 3
153 -3 156 59 2 37 -1 57 -10 62 -7 5 -8 9 -2 9 6 0 10 17 10 39 0 24 -4 37
-11 34 -16 -5 -16 87 -1 107 13 18 46 25 46 10 0 -6 -4 -9 -8 -6 -4 2 -14 0
-22 -5 -12 -7 -10 -8 7 -6 11 2 27 8 35 14 7 5 28 10 46 11 17 0 66 1 108 1
l75 1 -2 90 c-2 50 -7 90 -11 90 -5 0 -7 -4 -3 -9 3 -5 2 -12 -3 -14 -7 -5
-13 104 -16 265 0 31 -4 54 -8 52 -5 -3 -6 -9 -3 -14 3 -5 2 -11 -3 -14 -12
-7 -11 26 1 42 6 7 6 12 0 12 -5 0 -10 6 -10 13 -1 6 -2 63 -3 124 -1 63 -6
110 -11 107 -5 -3 -10 0 -10 5 -1 6 -2 17 -3 24 -1 6 5 15 14 19 12 5 12 7 -2
7 -15 1 -18 10 -18 51 0 38 4 50 15 50 8 0 15 6 15 13 0 9 2 9 8 0 9 -14 52
-13 52 0 0 5 -7 7 -15 4 -8 -4 -16 -3 -19 1 -2 4 52 8 120 10 l124 2 1 -67 c1
-38 2 -81 1 -97 0 -21 2 -25 9 -15 4 8 6 26 4 42 -3 15 -2 27 3 27 9 0 9 -9
11 -194 1 -91 4 -117 14 -113 12 4 16 -54 21 -304 0 -40 4 -55 13 -52 8 3 13
-14 15 -59 3 -62 4 -63 31 -64 16 -1 31 5 34 11 3 9 38 13 119 14 l114 2 1
-53 c1 -29 1 -58 0 -65 -1 -6 6 -14 16 -16 15 -4 15 -5 2 -6 -11 -1 -16 -9
-15 -25 0 -13 5 -22 9 -19 5 3 6 12 3 20 -3 8 -2 12 3 9 5 -3 9 -17 9 -31 0
-14 -5 -22 -11 -18 -6 4 -7 1 -1 -8 4 -8 10 -23 11 -33 2 -11 9 -26 16 -35 9
-12 9 -13 0 -7 -7 4 -13 2 -13 -3 0 -6 7 -11 15 -11 8 0 15 7 15 15 0 8 5 15
11 15 6 0 8 -8 5 -17 -6 -17 -5 -17 8 0 14 18 32 24 21 8 -3 -5 -1 -13 5 -16
6 -4 9 -1 8 6 -3 14 4 15 155 21 54 2 87 7 87 14 0 14 31 14 49 0 12 -9 13 -8
7 2 -6 10 -3 13 10 12 57 -6 185 1 179 10 -3 6 -1 10 4 10 6 0 11 -4 11 -8 0
-4 9 -8 20 -9 11 -1 20 3 20 8 0 6 -4 8 -9 4 -5 -3 -12 -2 -14 2 -5 8 25 9
206 12 39 1 66 5 62 10 -3 5 0 13 6 17 7 4 9 3 5 -4 -3 -6 -2 -13 3 -17 5 -3
15 3 21 12 11 17 11 17 6 1 -3 -10 -1 -18 4 -18 6 0 10 7 10 15 0 8 3 14 8 14
37 -6 242 3 237 10 -3 5 -1 13 5 16 6 4 9 1 8 -6 -4 -17 18 -22 33 -7 9 9 52
14 129 16 123 4 133 8 125 55 -3 15 -1 27 5 27 6 0 8 -6 4 -12 -4 -7 -3 -9 1
-5 15 13 14 36 -1 30 -13 -5 -15 13 -13 114 l1 119 72 1 c173 3 215 6 208 17
-12 19 -11 96 2 89 7 -5 7 -2 -1 8 -7 8 -13 56 -14 112 -2 53 -6 97 -10 97 -4
0 -10 7 -13 16 -5 13 -3 14 7 6 10 -8 13 -7 13 7 0 10 -6 17 -12 14 -9 -3 -12
28 -13 113 -2 132 -3 137 -15 145 -4 4 -10 20 -12 37 -3 26 -1 30 14 25 16 -6
16 -6 1 10 -13 12 -17 38 -18 112 l-2 95 43 2 c24 1 53 1 66 0 13 0 20 4 16 9
-3 6 -26 8 -50 6 -23 -2 -41 -1 -39 3 2 3 52 7 112 8 59 1 117 3 128 5 24 5
29 42 9 62 -10 10 -14 42 -14 110 0 54 -4 94 -9 91 -5 -3 -11 1 -14 9 -4 9 -1
12 7 9 15 -6 20 43 5 52 -5 3 -6 -1 -3 -9 3 -8 1 -17 -3 -20 -8 -5 -12 77 -17
311 0 17 -4 32 -9 32 -5 0 -6 -7 -3 -16 3 -8 2 -12 -4 -9 -14 9 -12 35 3 35 9
0 9 2 0 8 -8 5 -13 51 -14 140 -1 73 -6 127 -10 120 -4 -6 -5 -16 -2 -22 3 -5
2 -6 -4 -3 -10 7 -9 59 2 78 5 8 4 10 -3 5 -9 -5 -12 22 -13 101 -1 142 -3
160 -11 168 -4 4 -5 -4 -2 -18 2 -14 0 -28 -4 -31 -5 -3 -8 12 -8 32 1 25 6
36 14 34 8 -1 11 2 7 8 -3 6 -11 8 -16 5 -5 -4 -9 39 -9 104 l0 111 58 1 c111
3 123 4 132 19 9 13 10 13 10 0 0 -11 2 -12 8 -3 5 7 27 14 50 15 35 1 41 4
38 20 -1 11 -7 23 -14 26 -7 5 -12 59 -14 149 -1 78 -6 139 -10 137 -3 -2 -5
-16 -2 -29 2 -14 1 -25 -4 -25 -5 0 -9 17 -9 38 -1 230 -3 250 -20 255 -17 4
-17 5 -1 6 17 1 21 32 5 47 -3 4 -4 -4 -2 -16 2 -12 1 -19 -3 -16 -8 8 -10 49
-11 194 -1 80 -3 92 -18 93 -16 0 -16 1 -2 7 16 7 18 37 3 50 -4 4 -4 -1 -1
-10 3 -10 3 -19 -1 -22 -4 -3 -8 11 -9 30 0 19 4 34 11 34 8 0 8 3 -1 8 -7 5
-13 45 -14 114 -2 59 -6 105 -11 102 -5 -3 -6 -9 -4 -13 3 -4 -1 -8 -8 -8 -8
0 -12 6 -9 13 3 10 -5 12 -32 10 -20 -2 -39 -7 -43 -11 -4 -3 6 -4 21 -1 14 2
29 1 31 -3 3 -4 -55 -9 -128 -10 -86 -1 -136 2 -141 8 -3 6 0 9 8 5 8 -3 14 1
14 10 0 8 -6 12 -12 10 -8 -3 -12 27 -15 103 -1 59 -3 119 -4 133 -1 22 -5 26
-38 26 -20 1 -35 -3 -32 -8 3 -4 10 -6 15 -3 5 4 17 2 26 -4 14 -7 8 -9 -25
-8 -33 2 -41 5 -37 17 3 10 1 10 -9 -2 -11 -15 -30 -18 -110 -18 l-96 0 4 24
c3 17 0 23 -8 20 -9 -4 -13 22 -15 103 -3 145 -3 146 -34 150 -15 2 -27 -1
-27 -6 0 -5 11 -8 25 -7 13 2 22 0 20 -4 -2 -4 -18 -7 -35 -8 -24 0 -30 3 -26
14 3 8 4 14 3 13 -1 0 -8 -3 -15 -6z m-837 -103 c3 -5 1 -10 -4 -10 -6 0 -11
5 -11 10 0 6 2 10 4 10 3 0 8 -4 11 -10z m-291 -28 c3 -5 -1 -9 -9 -9 -8 0
-12 4 -9 9 3 4 7 8 9 8 2 0 6 -4 9 -8z m-614 -62 c0 -5 -5 -10 -11 -10 -5 0
-7 5 -4 10 3 6 8 10 11 10 2 0 4 -4 4 -10z m-905 -90 c3 -5 1 -10 -4 -10 -6 0
-11 5 -11 10 0 6 2 10 4 10 3 0 8 -4 11 -10z m-1688 -752 c-3 -8 -6 -5 -6 6
-1 11 2 17 5 13 3 -3 4 -12 1 -19z m5190 -673 c0 -8 -4 -12 -9 -9 -4 3 -8 9
-8 15 0 5 4 9 8 9 5 0 9 -7 9 -15z m-127 -35 c0 -5 -4 -10 -10 -10 -5 0 -10 5
-10 10 0 6 5 10 10 10 6 0 10 -4 10 -10z m-173 -52 c-3 -8 -6 -5 -6 6 -1 11 2
17 5 13 3 -3 4 -12 1 -19z m33 -288 c0 -5 -2 -10 -4 -10 -3 0 -8 5 -11 10 -3
6 -1 10 4 10 6 0 11 -4 11 -10z m-4980 -170 c0 -5 -2 -10 -4 -10 -3 0 -8 5
-11 10 -3 6 -1 10 4 10 6 0 11 -4 11 -10z m100 -310 c0 -5 -2 -10 -4 -10 -3 0
-8 5 -11 10 -3 6 -1 10 4 10 6 0 11 -4 11 -10z m4997 -671 c2 -12 -1 -18 -7
-14 -5 3 -10 16 -10 27 0 26 13 16 17 -13z m-5090 -248 c0 -11 -5 -18 -9 -15
-4 3 -5 11 -1 19 7 21 12 19 10 -4z m393 -871 c0 -5 -5 -10 -11 -10 -5 0 -7 5
-4 10 3 6 8 10 11 10 2 0 4 -4 4 -10z m2460 -28 c0 -4 -9 -8 -20 -9 -11 -1
-20 2 -20 5 0 4 9 8 20 9 11 1 20 -2 20 -5z m-640 -216 c0 -3 -4 -8 -10 -11
-5 -3 -10 -1 -10 4 0 6 5 11 10 11 6 0 10 -2 10 -4z m-876 -234 c3 -5 -1 -9
-9 -9 -8 0 -12 4 -9 9 3 4 7 8 9 8 2 0 6 -4 9 -8z"/>
<path d="M4405 5180 c-2 -3 5 -7 16 -7 10 -1 19 2 19 6 0 9 -29 10 -35 1z"/>
<path d="M2850 5030 c0 -5 5 -10 11 -10 5 0 7 5 4 10 -3 6 -8 10 -11 10 -2 0
-4 -4 -4 -10z"/>
<path d="M574 4771 c1 -17 5 -33 8 -36 3 -3 4 8 3 25 -1 17 -5 33 -8 36 -3 3
-5 -8 -3 -25z"/>
<path d="M5110 4710 c0 -5 5 -10 11 -10 5 0 7 5 4 10 -3 6 -8 10 -11 10 -2 0
-4 -4 -4 -10z"/>
<path d="M5290 4670 c0 -5 5 -10 11 -10 5 0 7 5 4 10 -3 6 -8 10 -11 10 -2 0
-4 -4 -4 -10z"/>
<path d="M198 4163 c7 -3 16 -2 19 1 4 3 -2 6 -13 5 -11 0 -14 -3 -6 -6z"/>
<path d="M5470 4130 c0 -5 5 -10 11 -10 5 0 7 5 4 10 -3 6 -8 10 -11 10 -2 0
-4 -4 -4 -10z"/>
<path d="M5533 3555 c0 -8 4 -12 9 -9 5 3 6 10 3 15 -9 13 -12 11 -12 -6z"/>
<path d="M99 3528 c-5 -9 -5 -48 -1 -43 6 6 11 45 5 45 -2 0 -4 -1 -4 -2z"/>
<path d="M125 3190 c3 -5 8 -10 11 -10 2 0 4 5 4 10 0 6 -5 10 -11 10 -5 0 -7
-4 -4 -10z"/>
<path d="M5350 2310 c0 -5 5 -10 11 -10 5 0 7 5 4 10 -3 6 -8 10 -11 10 -2 0
-4 -4 -4 -10z"/>
<path d="M2806 1692 c-3 -5 1 -9 9 -9 8 0 12 4 9 9 -3 4 -7 8 -9 8 -2 0 -6 -4
-9 -8z"/>
<path d="M5110 1671 c0 -6 4 -12 8 -15 5 -3 9 1 9 9 0 8 -4 15 -9 15 -4 0 -8
-4 -8 -9z"/>
<path d="M2715 1550 c-3 -5 -1 -10 4 -10 6 0 11 5 11 10 0 6 -2 10 -4 10 -3 0
-8 -4 -11 -10z"/>
<path d="M410 1450 c0 -5 5 -10 11 -10 5 0 7 5 4 10 -3 6 -8 10 -11 10 -2 0
-4 -4 -4 -10z"/>
<path d="M601 1394 c0 -11 3 -14 6 -6 3 7 2 16 -1 19 -3 4 -6 -2 -5 -13z"/>
<path d="M3035 1230 c3 -5 8 -10 11 -10 2 0 4 5 4 10 0 6 -5 10 -11 10 -5 0
-7 -4 -4 -10z"/>
<path d="M5170 1073 c0 -5 5 -15 10 -23 7 -12 9 -10 7 8 -1 19 -17 33 -17 15z"/>
<path d="M4906 1001 c-3 -5 6 -8 20 -8 19 0 22 2 13 8 -18 11 -26 11 -33 0z"/>
<path d="M4905 720 c2 -29 10 -33 13 -5 1 14 -2 25 -6 25 -5 0 -8 -9 -7 -20z"/>
<path d="M4370 639 c0 -5 5 -7 10 -4 6 3 10 8 10 11 0 2 -4 4 -10 4 -5 0 -10
-5 -10 -11z"/>
<path d="M994 561 c0 -16 3 -27 6 -25 7 8 7 54 0 54 -4 0 -7 -13 -6 -29z"/>
<path d="M3766 582 c-3 -5 1 -9 9 -9 8 0 12 4 9 9 -3 4 -7 8 -9 8 -2 0 -6 -4
-9 -8z"/>
<path d="M2290 429 c0 -5 5 -7 10 -4 6 3 10 8 10 11 0 2 -4 4 -10 4 -5 0 -10
-5 -10 -11z"/>
<path d="M1690 369 c0 -5 5 -7 10 -4 6 3 10 8 10 11 0 2 -4 4 -10 4 -5 0 -10
-5 -10 -11z"/>
<path d="M1026 308 c3 -4 9 -8 15 -8 5 0 9 4 9 8 0 5 -7 9 -15 9 -8 0 -12 -4
-9 -9z"/>
<path d="M1066 312 c-3 -5 1 -9 9 -9 8 0 12 4 9 9 -3 4 -7 8 -9 8 -2 0 -6 -4
-9 -8z"/>
</g>
</svg>
